<svg xmlns="http://www.w3.org/2000/svg" viewBox="-25 -14 458 132" role="img" aria-label="SST | Session Stats Tracker"><title>SST | Session Stats Tracker</title><g transform="translate(0 100) skewX(-24) translate(0 -100)"><path class="sst-accent-cyan" fill="#2fe0ff" d="M-34 70L-12 -10H60L52 -4H-6Z"/><path class="sst-accent-magenta" fill="#ff2e93" d="M150 114H300L290 108H160ZM318 42H400L392 47H322Z"/><g class="sst-letters" fill="#eef1fb"><path d="M10 0H122V25H34V37H122V100H0V75H88V63H0V10Z"/><path d="M144 0H256V25H168V37H256V100H134V75H222V63H134V10Z"/><path d="M268 0H384L374 25H340V100H312V25H268Z"/></g></g></svg>
